<svg width="512" height="512" viewBox="0 0 512 512" fill="none" xmlns="http://www.w3.org/2000/svg" xmlns:xlink="http://www.w3.org/1999/xlink" class=""><rect id="r9" width="512" height="512" x="0" y="0" rx="128" fill="#FC466B" stroke="#FFFFFF" stroke-width="0" stroke-opacity="100%" paint-order="stroke"></rect><rect width="512" height="512" x="0" y="0" fill="url(#rb)" rx="128" style="mix-blend-mode: overlay;"></rect><clipPath id="clip"><use xlink:href="#r9"></use></clipPath><defs><linearGradient id="ra" gradientUnits="userSpaceOnUse" gradientTransform="rotate(180)" style="transform-origin: center center;"><stop stop-color="#FC466B"></stop><stop offset="1" stop-color="#3F5EFB"></stop></linearGradient><radialGradient id="rb" cx="0" cy="0" r="1" gradientUnits="userSpaceOnUse" gradientTransform="translate(256) rotate(90) scale(512)"><stop stop-color="white"></stop><stop offset="1" stop-color="white" stop-opacity="0"></stop></radialGradient></defs><svg xmlns="http://www.w3.org/2000/svg" width="352" height="352" viewBox="0 0 24 24" x="80" y="80" alignment-baseline="middle" style="color: rgb(255, 255, 255);"><path fill="currentColor" d="M12 2q1.25 0 2.125.875T15 5t-.875 2.125T12 8t-2.125-.875T9 5t.875-2.125T12 2m0 7q1.175 0 2.325.275t2.075.775q.95.475 1.525 1.125T18.5 12.6v5.8q0 .425-.2.838t-.55.762t-.812.65t-1.038.55v-2.25q0-.95-1.312-1.55T12 16.8q-1.25 0-2.412.513T8.15 18.65q.95.375 1.95.525t2.05.175H13v2.6q-.175.05-.362.05h-.388q-.9 0-2.062-.2t-2.213-.625t-1.762-1.112T5.5 18.4v-5.8q0-.775.575-1.425t1.5-1.125q.95-.5 2.1-.775T12 9m0 6q.825 0 1.413-.587T14 13t-.587-1.412T12 11t-1.412.588T10 13t.588 1.413T12 15"></path></svg></svg>