<svg width="512" height="512" viewBox="0 0 512 512" fill="none" xmlns="http://www.w3.org/2000/svg" xmlns:xlink="http://www.w3.org/1999/xlink" class=""><rect id="r9" width="512" height="512" x="0" y="0" rx="128" fill="url(#ra)" stroke="#FFFFFF" stroke-width="0" stroke-opacity="100%" paint-order="stroke"></rect><rect width="512" height="512" x="0" y="0" fill="url(#rb)" rx="128" style="mix-blend-mode: overlay;"></rect><clipPath id="clip"><use xlink:href="#r9"></use></clipPath><defs><radialGradient id="ra" cx="50%" cy="50%" r="100%" fx="50%" fy="0%" gradientUnits="objectBoundingBox"><stop stop-color="#1D6E47"></stop><stop offset="1" stop-color="#041B11"></stop></radialGradient><radialGradient id="rb" cx="0" cy="0" r="1" gradientUnits="userSpaceOnUse" gradientTransform="translate(256) rotate(90) scale(512)"><stop stop-color="white"></stop><stop offset="1" stop-color="white" stop-opacity="0"></stop></radialGradient></defs><svg xmlns="http://www.w3.org/2000/svg" width="352" height="352" viewBox="0 0 48 48" x="80" y="80" alignment-baseline="middle" style="color: rgb(220, 238, 222);"><path fill="none" stroke="currentColor" stroke-linecap="round" stroke-linejoin="round" d="M25.464 33.868a8.687 8.687 0 1 1 8.687-8.687a8.696 8.696 0 0 1-8.687 8.687"></path><path fill="none" stroke="currentColor" stroke-linecap="round" stroke-linejoin="round" d="M25.396 36.486A11.417 11.417 0 1 0 13.979 25.07a11.43 11.43 0 0 0 11.417 11.417M24 4.5a17.219 17.219 0 1 0 17.219 17.219A17.22 17.22 0 0 0 24 4.5"></path><path fill="none" stroke="currentColor" stroke-linecap="round" stroke-linejoin="round" d="M30.81 37.537a38.8 38.8 0 0 1 6.883 5.346a3.3 3.3 0 0 1-.558.45a50 50 0 0 0-12.464-1.4a53.8 53.8 0 0 0-13.39 1.567a15 15 0 0 1-.98-.637c1.045-1.055 5.852-4.848 7.102-5.236"></path></svg></svg>