<svg width="512" height="512" viewBox="0 0 512 512" fill="none" xmlns="http://www.w3.org/2000/svg" xmlns:xlink="http://www.w3.org/1999/xlink" class=""><rect id="r9" width="512" height="512" x="0" y="0" rx="128" fill="url(#ra)" stroke="#FFFFFF" stroke-width="0" stroke-opacity="100%" paint-order="stroke"></rect><clipPath id="clip"><use xlink:href="#r9"></use></clipPath><defs><linearGradient id="ra" gradientUnits="userSpaceOnUse" gradientTransform="rotate(180)" style="transform-origin: center center;"><stop stop-color="#CCCFE2"></stop><stop offset="1" stop-color="#25242B"></stop></linearGradient><radialGradient id="rb" cx="0" cy="0" r="1" gradientUnits="userSpaceOnUse" gradientTransform="translate(256) rotate(90) scale(512)"><stop stop-color="white"></stop><stop offset="1" stop-color="white" stop-opacity="0"></stop></radialGradient></defs><svg xmlns="http://www.w3.org/2000/svg" width="352" height="352" viewBox="0 0 24 24" x="80" y="80" alignment-baseline="middle" style="color: rgb(255, 255, 255);"><path fill="currentColor" d="M12 3a4 4 0 0 1 3.696 5.533a5.996 5.996 0 0 0-4.216 2.434A4.002 4.002 0 0 1 8 7a4 4 0 0 1 4-4m5.764 5.672a6 6 0 1 0-11.527 0A6 6 0 1 0 12 18.655a6 6 0 1 0 5.764-9.983m-4.61 8.262a5.996 5.996 0 0 0 0-4.867a4.001 4.001 0 1 1 0 4.867m-1.79-3.967a4.001 4.001 0 1 1-4.214-2.434a5.996 5.996 0 0 0 4.215 2.434"></path></svg></svg>