<svg width="512" height="512" viewBox="0 0 512 512" fill="none" xmlns="http://www.w3.org/2000/svg" xmlns:xlink="http://www.w3.org/1999/xlink" class=""><rect id="r9" width="512" height="512" x="0" y="0" rx="128" fill="url(#ra)" stroke="#FFFFFF" stroke-width="0" stroke-opacity="100%" paint-order="stroke"></rect><clipPath id="clip"><use xlink:href="#r9"></use></clipPath><defs><radialGradient id="ra" cx="50%" cy="50%" r="100%" fx="50%" fy="50%" gradientUnits="objectBoundingBox"><stop stop-color="#FF7DB4"></stop><stop offset="1" stop-color="#654EA3"></stop></radialGradient><radialGradient id="rb" cx="0" cy="0" r="1" gradientUnits="userSpaceOnUse" gradientTransform="translate(256) rotate(90) scale(512)"><stop stop-color="white"></stop><stop offset="1" stop-color="white" stop-opacity="0"></stop></radialGradient></defs><svg xmlns="http://www.w3.org/2000/svg" width="352" height="352" viewBox="0 0 24 24" x="80" y="80" alignment-baseline="middle" style="color: rgb(255, 255, 255);"><path fill="currentColor" d="M19 21q-.975 0-1.75-.562T16.175 19H11q-1.65 0-2.825-1.175T7 15t1.175-2.825T11 11h2q.825 0 1.413-.587T15 9t-.587-1.412T13 7H7.825q-.325.875-1.088 1.438T5 9q-1.25 0-2.125-.875T2 6t.875-2.125T5 3q.975 0 1.738.563T7.825 5H13q1.65 0 2.825 1.175T17 9t-1.175 2.825T13 13h-2q-.825 0-1.412.588T9 15t.588 1.413T11 17h5.175q.325-.875 1.088-1.437T19 15q1.25 0 2.125.875T22 18t-.875 2.125T19 21M5 7q.425 0 .713-.288T6 6t-.288-.712T5 5t-.712.288T4 6t.288.713T5 7"></path></svg></svg>