<svg width="512" height="512" viewBox="0 0 512 512" fill="none" xmlns="http://www.w3.org/2000/svg" xmlns:xlink="http://www.w3.org/1999/xlink" class=""><rect id="r9" width="512" height="512" x="0" y="0" rx="128" fill="url(#ra)" stroke="#FFFFFF" stroke-width="0" stroke-opacity="100%" paint-order="stroke"></rect><rect width="512" height="512" x="0" y="0" fill="url(#rb)" rx="128" style="mix-blend-mode: overlay;"></rect><clipPath id="clip"><use xlink:href="#r9"></use></clipPath><defs><radialGradient id="ra" cx="50%" cy="50%" r="100%" fx="50%" fy="0%" gradientUnits="objectBoundingBox"><stop stop-color="#4d4d4d"></stop><stop offset="1" stop-color="#000000"></stop></radialGradient><radialGradient id="rb" cx="0" cy="0" r="1" gradientUnits="userSpaceOnUse" gradientTransform="translate(256) rotate(90) scale(512)"><stop stop-color="white"></stop><stop offset="1" stop-color="white" stop-opacity="0"></stop></radialGradient></defs><svg xmlns="http://www.w3.org/2000/svg" fill="none" viewBox="0 0 16 16" width="352" height="352" x="80" y="80" alignment-baseline="middle" style="color: rgb(230, 230, 230);"><path fill="currentColor" d="M11.484 2.975c-.817-.509-1.588-.71-2.359-1.218C8.647 1.434 7.985.663 7.43 0c-.108 1.064-.432 1.495-.802 1.803-.786.617-1.28.802-1.957 1.172C4.1 3.268 1 5.118 1 9.095 1.003 13.07 4.348 16 8.062 16c3.716 0 6.937-2.697 6.937-6.782s-3.021-5.935-3.514-6.243Zm.089 11.575c-.077.077-.786.57-1.619.647-.832.077-1.957.123-2.636-.493-.107-.108-.077-.262 0-.324s.14-.108.232-.108.077 0 .123.03c.308.247.77.448 1.757.448.987 0 1.68-.278 1.989-.509.138-.108.2-.015.215.046.016.062.047.155-.061.262Zm-2.698-1.403c.17-.154.447-.4.71-.509.261-.108.4-.092.647-.092.246 0 .508.015.694.139.185.123.293.4.354.554.062.154 0 .247-.123.308-.108.062-.124.031-.231-.169-.108-.2-.2-.4-.74-.4s-.71.184-.972.4c-.262.216-.354.293-.447.17-.092-.124-.061-.247.108-.401Zm4.085.123c-.555-.046-1.665-1.772-2.374-1.803-.894-.031-2.836 1.865-4.362 1.865-.925 0-1.202-.139-1.51-.34-.463-.323-.694-.816-.679-1.495.015-1.202 1.14-2.327 2.559-2.343 1.803-.015 3.052 1.789 3.962 1.773.77-.015 2.25-1.526 2.974-1.526.771 0 .987.802.987 1.28 0 .477-.154 1.34-.524 1.88-.37.54-.601.74-1.033.71Z"></path></svg></svg>