<svg width="512" height="512" viewBox="0 0 512 512" fill="none" xmlns="http://www.w3.org/2000/svg" xmlns:xlink="http://www.w3.org/1999/xlink" class=""><rect id="r9" width="512" height="512" x="0" y="0" rx="128" fill="url(#ra)" stroke="#FFFFFF" stroke-width="0" stroke-opacity="100%" paint-order="stroke"></rect><clipPath id="clip"><use xlink:href="#r9"></use></clipPath><defs><linearGradient id="ra" gradientUnits="userSpaceOnUse" gradientTransform="rotate(45)" style="transform-origin: center center;"><stop stop-color="#FF7DB4"></stop><stop offset="1" stop-color="#654EA3"></stop></linearGradient><radialGradient id="rb" cx="0" cy="0" r="1" gradientUnits="userSpaceOnUse" gradientTransform="translate(256) rotate(90) scale(512)"><stop stop-color="white"></stop><stop offset="1" stop-color="white" stop-opacity="0"></stop></radialGradient></defs><svg xmlns="http://www.w3.org/2000/svg" width="352" height="352" viewBox="0 0 24 24" x="80" y="80" alignment-baseline="middle" style="color: rgb(255, 255, 255);"><path fill="currentColor" d="M6 19h12L16.575 9h-9.15zm6-12q.425 0 .713-.288T13 6t-.288-.712T12 5t-.712.288T11 6t.288.713T12 7m2.825 0h1.75q.75 0 1.3.5t.675 1.225l1.425 10q.125.9-.462 1.588T18 21H6q-.925 0-1.513-.687t-.462-1.588l1.425-10Q5.575 8 6.125 7.5t1.3-.5h1.75q-.075-.25-.125-.487T9 6q0-1.25.875-2.125T12 3t2.125.875T15 6q0 .275-.05.513T14.825 7M6 19h12z"></path></svg></svg>