<?xml version="1.0" standalone="no"?>
<!DOCTYPE svg PUBLIC "-//W3C//DTD SVG 20010904//EN"
 "http://www.w3.org/TR/2001/REC-SVG-20010904/DTD/svg10.dtd">
<svg version="1.0" xmlns="http://www.w3.org/2000/svg"
 width="512.000000pt" height="512.000000pt" viewBox="0 0 512.000000 512.000000"
 preserveAspectRatio="xMidYMid meet">

<g transform="translate(0.000000,512.000000) scale(0.100000,-0.100000)"
fill="#000000" stroke="none">
<path d="M1425 5113 c-305 -25 -569 -124 -807 -303 -314 -236 -507 -551 -596
-970 -14 -66 -16 -291 -19 -1958 l-4 -1883 1883 4 c2018 4 1926 2 2103 52 400
114 730 371 934 730 55 96 120 254 146 357 51 195 48 76 52 2096 l4 1882
-1828 -2 c-1005 -1 -1846 -3 -1868 -5z m3440 -1973 c0 -1822 1 -1772 -45
-1940 -93 -340 -329 -634 -636 -792 -180 -93 -326 -133 -544 -148 -93 -7 -722
-10 -1765 -8 l-1620 3 0 1725 c0 1404 3 1739 13 1800 52 285 161 499 355 699
215 220 508 356 822 380 55 5 847 8 1760 7 l1660 -1 0 -1725z"/>
<path d="M2554 4021 c-127 -86 -460 -391 -895 -818 l-225 -222 -23 45 c-65
136 -361 595 -457 711 -93 112 -136 133 -187 93 -60 -47 -133 -224 -123 -297
7 -56 100 -308 262 -710 l133 -332 -94 -141 c-101 -153 -218 -373 -258 -485
-88 -249 -48 -405 156 -607 95 -94 187 -158 229 -158 38 0 64 43 78 134 26
169 35 202 75 284 24 48 72 126 108 174 l64 88 89 -140 c113 -179 239 -348
344 -462 103 -112 157 -137 223 -107 33 15 75 83 83 134 13 88 -73 358 -273
858 -68 171 -93 244 -87 256 5 9 66 100 135 202 356 519 723 1129 763 1268 19
64 21 202 5 234 -26 49 -50 48 -125 -2z"/>
<path d="M3695 3908 c-45 -8 -357 -149 -715 -321 -74 -36 -153 -81 -176 -101
-53 -45 -101 -137 -120 -228 -8 -40 -26 -118 -40 -173 -34 -133 -34 -220 1
-291 51 -104 112 -137 615 -337 514 -204 564 -229 594 -292 32 -67 3 -97 -189
-191 -209 -102 -357 -144 -581 -165 -232 -21 -302 22 -226 142 41 64 170 180
284 255 121 79 127 100 30 97 -74 -2 -139 -22 -247 -76 -302 -151 -395 -298
-382 -607 9 -194 49 -315 135 -411 168 -187 581 -180 991 17 279 134 464 306
583 542 62 124 82 215 76 346 -9 168 -73 301 -211 438 -162 160 -436 303 -783
408 -76 23 -153 51 -171 62 -38 22 -50 52 -31 75 28 35 485 230 513 219 8 -3
25 -27 39 -53 79 -156 213 -233 385 -220 245 19 460 303 396 523 -14 48 -28
69 -83 123 -94 92 -281 190 -420 220 -62 13 -196 13 -267 -1z"/>
</g>
</svg>
