<svg width="512" height="512" viewBox="0 0 512 512" fill="none" xmlns="http://www.w3.org/2000/svg" xmlns:xlink="http://www.w3.org/1999/xlink" class=""><rect id="r9" width="512" height="512" x="0" y="0" rx="128" fill="url(#ra)" stroke="#FFFFFF" stroke-width="0" stroke-opacity="100%" paint-order="stroke"></rect><clipPath id="clip"><use xlink:href="#r9"></use></clipPath><defs><radialGradient id="ra" cx="50%" cy="50%" r="100%" fx="50%" fy="50%" gradientUnits="objectBoundingBox"><stop stop-color="#68AEFF"></stop><stop offset="1" stop-color="#003EB7"></stop></radialGradient><radialGradient id="rb" cx="0" cy="0" r="1" gradientUnits="userSpaceOnUse" gradientTransform="translate(256) rotate(90) scale(512)"><stop stop-color="white"></stop><stop offset="1" stop-color="white" stop-opacity="0"></stop></radialGradient></defs><svg xmlns="http://www.w3.org/2000/svg" width="512" height="512" viewBox="0 0 24 24" x="0" y="0" alignment-baseline="middle" style="color: rgb(255, 255, 255);"><path fill="currentColor" d="m16.1 11.9l-4-4L18 2h4v4zM3.55 21.7L2.3 20.45q-.3-.3-.3-.7t.3-.7l2.9-2.925l-2.2-2.2l.7-.7q.575-.575 1.425-.575t1.425.575l.1.125l1.2-1.2l4 4l-1.2 1.2l.125.1q.575.575.575 1.425t-.575 1.425l-.7.7l-2.2-2.2l-2.925 2.9q-.3.3-.7.3t-.7-.3m18.425-1.1l-1.4 1.4l-11.65-11.6q-1.225.75-2.675.588t-2.5-1.213l-.625-.625l.675-.7q.65-.675 1.588-.662t1.587.662l1.95 1.95q.225-.125.425-.287t.4-.363q.175-.175.325-.375t.275-.4L8.4 7.025q-1.275-1.25-3.025-1.25T2.4 7.05l-.675.675L1 7l6-5.975l2.75 2.75Q10.825 4.85 10.963 6.3t-.613 2.675l7.225 7.225q-.2-.65-.25-1.35t.075-1.4q.15-.75.513-1.4t.85-1.213t1.112-1.025t1.3-.812q.975 1.2 1.5 2.625t.225 2.925q-.275 1.275-1.062 2.275t-1.913 1.725z"></path></svg></svg>